<?xml version="1.0" encoding="utf-8"?>
<!-- Generator: Adobe Illustrator 16.0.0, SVG Export Plug-In . SVG Version: 6.00 Build 0)  -->
<!DOCTYPE svg PUBLIC "-//W3C//DTD SVG 1.1//EN" "http://www.w3.org/Graphics/SVG/1.1/DTD/svg11.dtd">
<svg version="1.1" xmlns="http://www.w3.org/2000/svg" xmlns:xlink="http://www.w3.org/1999/xlink" x="0px" y="0px"
	 width="389.333px" height="348px" viewBox="0 0 389.333 348" enable-background="new 0 0 389.333 348" xml:space="preserve">
<g id="Layer_8" display="none">
	<g id="Layer_2" display="inline">
	</g>
	<g id="Layer_3" display="inline">
	</g>
	<g id="Layer_4" display="inline">
	</g>
	<g id="Layer_5" display="inline">
	</g>
	<g id="Layer_6" display="inline">
	</g>
	<g id="Layer_7" display="inline">
		<g>
			<g>
				<polygon fill="#0060AB" points="390.354,322 362.63,70 227.43,70 220.741,38.604 11.462,38.914 -7.132,216.879 -7.166,217.297 
					-7.521,217.369 -3,217.143 -3,242 260.898,242 267.083,289 -14.569,289 -18.059,322 				"/>
				<polygon fill="#0060AB" stroke="#FFFFFF" stroke-miterlimit="10" points="-7.173,217.5 -7.188,217.5 -14.547,287.892 
					-7.183,217.404 -7.5,217.39 -7.5,217.393 -7.29,217.508 -14.804,288.5 -14.569,288.5 -14.547,288.5 				"/>
				<polygon fill="#FFFFFF" stroke="#FFFFFF" stroke-width="0" stroke-linecap="round" stroke-linejoin="round" points="
					-24.875,217.975 -53.397,289 -14.804,289 -7.51,217.947 				"/>
				<polygon fill="#0060AB" stroke="#FFFFFF" stroke-miterlimit="10" points="-7.51,217.393 -14.804,288.261 -7.295,217.39 				"/>
			</g>
			<polygon fill="#FFFFFF" stroke="#0060AB" stroke-width="16" stroke-linecap="round" stroke-linejoin="round" points="-3,218 
				-29.458,218 -56.609,290 267.083,290 260.898,243 -3,243 			"/>
			<rect x="24" y="319" fill="#0060AB" width="82" height="24"/>
			<rect x="259" y="318" fill="#0060AB" width="82" height="24"/>
			<polygon fill="#0060AB" stroke="#FFFFFF" stroke-width="18" stroke-miterlimit="10" points="33.993,30.504 23.313,148 
				205.016,148 196.611,30.809 			"/>
			<rect x="58" y="52" fill="#FFFFFF" stroke="#FFFFFF" stroke-width="10" stroke-miterlimit="10" width="113" height="14"/>
			<polygon fill="#0060AB" stroke="#FFFFFF" stroke-width="14" stroke-miterlimit="10" points="237.773,48.341 245.698,83 
				340.928,83 352.855,48.65 			"/>
			<path fill="#0060AB" stroke="#0060AB" stroke-width="10" stroke-miterlimit="10" d="M188.422,34.606"/>
			<path fill="#0060AB" stroke="#0060AB" stroke-width="10" stroke-miterlimit="10" d="M32.609,34.391"/>
			<rect x="224" y="5" fill="#0060AB" width="139" height="35"/>
			<path fill="#0060AB" stroke="#FFFFFF" stroke-width="18" stroke-miterlimit="10" d="M23.534,144
				c-0.425,4-0.651,5.999-0.651,8.904c0,39.676,40.878,71.996,91.304,71.996c50.426,0,91.304-32.398,91.304-72.075
				c0-2.905-0.226-4.825-0.65-8.825H23.534z"/>
			<g>
				<ellipse fill="#FFFFFF" stroke="#FFFFFF" stroke-miterlimit="10" cx="65.675" cy="83.86" rx="5.587" ry="3.99"/>
				<ellipse fill="#FFFFFF" stroke="#FFFFFF" stroke-miterlimit="10" cx="64.306" cy="96.175" rx="5.587" ry="3.99"/>
				<ellipse fill="#FFFFFF" stroke="#FFFFFF" stroke-miterlimit="10" cx="62.937" cy="108.489" rx="5.587" ry="3.991"/>
				<ellipse fill="#FFFFFF" stroke="#FFFFFF" stroke-miterlimit="10" cx="61.569" cy="121.489" rx="5.587" ry="3.991"/>
				<ellipse fill="#FFFFFF" stroke="#FFFFFF" stroke-miterlimit="10" cx="94.409" cy="83.86" rx="5.587" ry="3.99"/>
				<ellipse fill="#FFFFFF" stroke="#FFFFFF" stroke-miterlimit="10" cx="114.25" cy="83.86" rx="5.587" ry="3.99"/>
				<ellipse fill="#FFFFFF" stroke="#FFFFFF" stroke-miterlimit="10" cx="134.091" cy="83.86" rx="5.587" ry="3.99"/>
				<ellipse fill="#FFFFFF" stroke="#FFFFFF" stroke-miterlimit="10" cx="162.142" cy="83.86" rx="5.587" ry="3.99"/>
				<ellipse fill="#FFFFFF" stroke="#FFFFFF" stroke-miterlimit="10" cx="93.725" cy="96.175" rx="5.587" ry="3.99"/>
				<ellipse fill="#FFFFFF" stroke="#FFFFFF" stroke-miterlimit="10" cx="93.041" cy="108.489" rx="5.587" ry="3.991"/>
				<ellipse fill="#FFFFFF" stroke="#FFFFFF" stroke-miterlimit="10" cx="92.356" cy="121.489" rx="5.587" ry="3.991"/>
				<ellipse fill="#FFFFFF" stroke="#FFFFFF" stroke-miterlimit="10" cx="114.25" cy="96.175" rx="5.587" ry="3.99"/>
				<ellipse fill="#FFFFFF" stroke="#FFFFFF" stroke-miterlimit="10" cx="114.25" cy="108.489" rx="5.587" ry="3.991"/>
				<ellipse fill="#FFFFFF" stroke="#FFFFFF" stroke-miterlimit="10" cx="114.25" cy="121.489" rx="5.587" ry="3.991"/>
				<ellipse fill="#FFFFFF" stroke="#FFFFFF" stroke-miterlimit="10" cx="134.775" cy="96.175" rx="5.587" ry="3.99"/>
				<ellipse fill="#FFFFFF" stroke="#FFFFFF" stroke-miterlimit="10" cx="135.459" cy="108.489" rx="5.587" ry="3.991"/>
				<ellipse fill="#FFFFFF" stroke="#FFFFFF" stroke-miterlimit="10" cx="136.143" cy="121.489" rx="5.587" ry="3.991"/>
				<ellipse fill="#FFFFFF" stroke="#FFFFFF" stroke-miterlimit="10" cx="163.51" cy="96.175" rx="5.588" ry="3.99"/>
				<ellipse fill="#FFFFFF" stroke="#FFFFFF" stroke-miterlimit="10" cx="164.878" cy="108.489" rx="5.587" ry="3.991"/>
				<ellipse fill="#FFFFFF" stroke="#FFFFFF" stroke-miterlimit="10" cx="166.247" cy="121.489" rx="5.587" ry="3.991"/>
			</g>
			<circle fill="#0060AB" stroke="#FFFFFF" stroke-width="18" stroke-miterlimit="10" cx="386.906" cy="259.382" r="69.824"/>
			<polyline fill="#0060AB" stroke="#FFFFFF" stroke-width="24" stroke-miterlimit="10" points="345.528,259.67 370.813,287.255 
				424.548,233.521 			"/>
		</g>
	</g>
</g>
<g id="Layer_10">
	<g>
		<path id="help-5-icon" fill="#0060AB" d="M195.058,5C98.938,5,13.082,69.706,13.082,158.206c0,31.389,11.205,62.207,31.037,86.123
			c0.838,28.023-15.504,68.217-30.226,97.498c39.456-7.196,95.55-23.098,120.99-38.825c140.065,34.398,242.15-52.137,242.15-144.797
			C377.033,69.22,290.579,5,195.058,5z M200.099,250.453c-10.832,0-19.619-8.786-19.619-19.624c0-10.83,8.787-19.614,19.619-19.614
			c10.838,0,19.622,8.784,19.622,19.614C219.721,241.667,210.937,250.453,200.099,250.453z M215.526,192.462v3.526
			c0,0-29.417,0-32.344,0v-3.526c0-9.989,1.457-22.8,13.052-33.938c11.596-11.139,26.086-20.341,26.086-34.257
			c0-15.385-10.675-23.522-24.138-23.522c-22.432,0-23.896,23.264-24.45,28.386h-31.456c0.838-24.258,11.09-58.189,56.094-58.189
			c39.002,0,56.537,26.12,56.537,50.614C254.907,160.543,215.526,167.315,215.526,192.462z"/>
	</g>
</g>
<g id="Layer_11" display="none">
	<g display="inline">
		<path id="refresh-4-icon" fill="#0060AB" d="M301.811,59.079C222.535-3.552,94.497,49.051,94.497,164.908c0,0.021,0-0.02,0,0
			h38.315l-85.319,90.679l-85.22-90.679h37.139c0-0.011,0,0.008,0,0C-0.587,20.511,204.509-52.119,301.811,59.079z M56.46,290.288
			c79.277,62.633,207.314,10.028,207.314-105.827c0-0.022,0,0.021,0,0H225.46l85.319-90.68L396,184.461h-37.141c0,0.01,0-0.01,0,0
			C358.859,328.856,153.763,401.488,56.46,290.288z"/>
	</g>
</g>
<g id="Layer_12" display="none">
	<g display="inline">
		<path id="email-icon" fill="#0060AB" d="M90.16,154.785L-42.95,52.534v235.36L90.16,154.785z M410.815,5H-41.386l225.92,173.545
			L410.815,5z M247.859,178.686l-63.345,48.58l-63.443-48.736L-42.397,342h453.569L247.859,178.686z M278.791,154.962L412,288.17
			V52.798L278.791,154.962z"/>
	</g>
</g>
<g id="Layer_13" display="none">
	<path display="inline" fill-rule="evenodd" clip-rule="evenodd" fill="#0060AB" d="M-54.694,342.754
		c11.366-4.376,22.733-8.747,34.097-13.13c24.226-9.345,48.439-18.724,72.677-28.037c27.938-10.734,55.915-21.371,83.843-32.133
		c21.002-8.092,41.93-16.377,62.936-24.461c20.517-7.895,41.12-15.568,61.632-23.477c16.822-6.486,33.559-13.195,50.348-19.77
		c19.557-7.658,38.977-15.701,58.736-22.797c20.628-7.406,32.075-21.7,35.9-42.985c1.564-8.705,2.123-17.023-2.263-25.058
		c-5.271-9.654-14.197-14.132-24.395-15.078c-11.888-1.102-23.924-0.935-35.884-0.71c-3.717,0.07-6.351-0.761-8.886-3.195
		c-10.189-9.782-21.805-17.44-35.392-21.415c-10.762-3.148-21.77-5.525-32.753-7.835c-30.625-6.441-61.293-12.676-91.947-18.98
		c-29.044-5.972-58.085-11.965-87.141-17.881C60.373,20.428,33.919,15.095,7.453,9.823C-0.456,8.248-8.42,6.957-16.29,4.939
		c162.798,0,325.597,0,488.916,0c-1.5,7.578-2.928,14.861-4.384,22.138c-4.973,24.837-9.932,49.676-14.941,74.505
		c-3.5,17.353-7.104,34.684-10.609,52.037c-5.442,26.94-10.836,53.89-16.257,80.834c-5.291,26.302-10.608,52.598-15.877,78.903
		c-1.786,8.916-3.658,17.823-5.073,26.8c-0.503,3.196-1.929,3.847-4.613,3.545c-0.329-0.037-0.666-0.005-0.999-0.005
		c-150.312,0-300.625,0-450.937,0c-1.161,0-2.322,0-3.483,0C-54.596,343.382-54.646,343.067-54.694,342.754z"/>
	<path display="inline" fill-rule="evenodd" clip-rule="evenodd" fill="#0060AB" d="M274.611,126.918
		c-1.704-3.91,1.014-4.141,3.236-4.597c8.741-1.796,17.582-3.187,26.215-5.396c6.734-1.724,13.511-3.938,18.529-10.647
		c-71.732,0-142.606,0-214.496,0c11.599,33.097,23.053,65.78,34.358,98.042c19.567-7.931,38.624-16.339,58.167-23.397
		c23.002-8.307,46.293-15.893,69.717-22.93c15.34-4.609,31.009-8.432,46.777-11.197c10.676-1.872,21.817-2.037,32.679-1.509
		c5.544,0.27,10.931,3.747,16.389,5.775c-0.127,0.791-0.254,1.581-0.381,2.372c-3.412,0.414-6.927,1.566-10.218,1.111
		c-12.229-1.694-23.763,1.835-35.402,4.233c-22.198,4.575-42.673,14.233-63.594,22.499c-21.999,8.692-43.888,17.67-65.703,26.814
		c-23.202,9.727-46.302,19.699-69.371,29.738c-23.055,10.035-46.143,20.01-68.984,30.515
		c-25.732,11.835-51.342,23.952-76.751,36.464c-24.953,12.288-49.584,25.226-74.366,37.861c-0.245,0.125-0.61,0.016-1.34,0.016
		c4.478-23.501,8.904-46.891,13.396-70.266c4.06-21.131,8.214-42.242,12.283-63.371c5.417-28.135,10.835-56.27,16.163-84.422
		c2.496-13.187,4.908-26.393,7.082-39.636c0.598-3.64,2.91-2.975,5.132-2.983c23.309-0.089,46.617-0.147,69.925-0.221
		c75.777-0.241,151.555-0.664,227.332-0.593c17.238,0.016,34.523,1.594,51.084,7.067c9.264,3.062,18.501,6.437,23.152,16.319
		c0.396,0.844,2.51,1.223,3.833,1.236c13.635,0.155,27.275,0,40.904,0.322c10.14,0.24,16.163,5.367,16.297,15.615
		c0.173,13.225-2.577,26.062-11.558,36.623c-1.229,1.445-2.928,2.492-5.368,4.521c0-2.672-0.214-4.186,0.035-5.619
		c1.388-7.981,2.903-15.941,4.342-23.914c0.833-4.619-1.568-6.376-5.818-6.424c-11.964-0.135-23.928-0.388-35.892-0.375
		c-17.491,0.018-34.981,0.227-52.473,0.351C278.11,126.93,276.298,126.918,274.611,126.918z"/>
</g>
<g id="Layer_9" display="none">
	<g display="inline">
		<path fill="none" d="M82,311h227V87H82V311z M117,136h157v24H117V136z M117,189h157v24H117V189z M117,242h157v24h0.633h-0.002H117
			V242z"/>
		<g>
			<rect x="82" y="87" fill="none" width="227" height="224"/>
			<path fill="#0060AB" d="M50,9v334h291V9H50z M82,44h108v20H82V44z M309,311H82V87h227V311z"/>
		</g>
	</g>
	<rect x="103" y="102" display="inline" fill="#0060AB" width="53" height="53"/>
	<rect x="103" y="168" display="inline" fill="#0060AB" width="53" height="53"/>
	<rect x="103" y="235" display="inline" fill="#0060AB" width="53" height="53"/>
	<rect x="176" y="107" display="inline" fill="#0060AB" width="106" height="15"/>
	<rect x="176" y="135" display="inline" fill="#0060AB" width="106" height="15"/>
	<rect x="176" y="173" display="inline" fill="#0060AB" width="106" height="15"/>
	<rect x="176" y="201" display="inline" fill="#0060AB" width="106" height="15"/>
	<rect x="176" y="239" display="inline" fill="#0060AB" width="106" height="15"/>
	<rect x="176" y="267" display="inline" fill="#0060AB" width="106" height="15"/>
</g>
</svg>
